<?xml version="1.0" encoding="utf-8"?>
<!-- Generator: Adobe Illustrator 28.4.1, SVG Export Plug-In . SVG Version: 6.00 Build 0)  -->
<svg version="1.1" id="layer" xmlns="http://www.w3.org/2000/svg" xmlns:xlink="http://www.w3.org/1999/xlink" x="0px" y="0px"
	 viewBox="0 0 570 470" style="enable-background:new 0 0 570 470;" xml:space="preserve">
<style type="text/css">
	.Drop_x0020_Shadow{fill:none;}
	.Outer_x0020_Glow_x0020_5_x0020_pt{fill:none;}
	.Blue_x0020_Neon{fill:none;stroke:#89ABD9;stroke-width:7;stroke-linecap:round;stroke-linejoin:round;}
	.Chrome_x0020_Highlight{fill:url(#SVGID_1_);stroke:#FFFFFF;stroke-width:0.3629;stroke-miterlimit:1;}
	.Jive_GS{fill:#FFDC00;}
	.Alyssa_GS{fill:#A5CFE3;}
	.st0{fill:#171714;}
</style>
<linearGradient id="SVGID_1_" gradientUnits="userSpaceOnUse" x1="671.1788" y1="-125" x2="671.1788" y2="-126">
	<stop  offset="0" style="stop-color:#656565"/>
	<stop  offset="0.618" style="stop-color:#1B1B1B"/>
	<stop  offset="0.6292" style="stop-color:#545454"/>
	<stop  offset="0.9831" style="stop-color:#3E3E3E"/>
</linearGradient>
<g>
	<path class="st0" d="M326.456,163.129c-0.157-1.278-0.98-2.433-2.313-2.638c-1.599-0.247-2.904,0.964-3.647,2.25
		c-1.901,3.292-1.241,8.019,0.189,11.342c0.23,0.535,0.638,0.756,1.049,0.781c-1.119,2.987-2.332,5.939-3.643,8.863
		c-4.95,11.039-11.501,21.045-18.847,30.62c-2.008,2.618-4.123,5.177-6.382,7.583c-1.378,1.468-2.891,2.822-4.345,4.229
		c-0.68-0.873-1.64-1.535-2.758-1.868c0.369-0.623,0.752-1.239,1.116-1.862c1.606-2.745,3.118-5.55,4.492-8.419
		c2.744-5.728,5.054-11.66,6.889-17.74c1.843-6.108,3.379-12.258,4.355-18.568c0.488-3.157,0.938-6.316,1.243-9.498
		c0.149-1.557,0.287-3.118,0.363-4.681c0.068-1.399,0.265-2.964-0.26-4.304c-1.124-2.871-5.023-2.54-6.233,0.084
		c-1.519,3.293,1.4,6.05,3.829,7.817c0.048,0.43,0.15,0.782,0.364,1.183l0.104,0.126c-0.195,4.495-0.657,8.972-1.435,13.407
		c-1.925,10.983-5.35,21.608-10.175,31.659c-1.351,2.815-2.78,5.591-4.323,8.306c-0.441,0.775-0.907,1.535-1.38,2.29
		c-0.123-0.013-0.243-0.034-0.368-0.039l-0.093,0.004l0.079-0.175l-1.456-0.021l-0.001-0.006c-0.061,0.112-0.119,0.226-0.181,0.338
		c-2.264,0.419-4.306,1.823-6.009,3.401l-8.168,7.448c0.146-1.421,1.02-9.622,1.113-11.536c0.043-0.884,0.065-1.768,0.099-2.652
		c0.798-8.096,1.339-16.229,1.577-24.333c0.359-12.207,0.056-24.448-1.272-36.593c-2.403-21.977-7.889-43.566-17.906-63.347
		c-8.897-17.569-21.204-33.672-36.766-45.846c-3.867-3.025-7.903-5.824-12.128-8.325c-4.316-2.555-8.821-4.972-13.67-6.343
		c-4.714-1.333-9.944-1.685-14.443,0.56c-4.155,2.073-6.666,6.13-7.819,10.505c-1.182,4.485-1.243,9.178-1.81,13.758
		c-0.693,5.606-2.932,10.651-5.163,15.782c-4.73,10.874-6.414,22.719-7.142,34.478c-0.166,2.685-0.289,5.373-0.414,8.061
		c-2.775-1.042-5.572-2.027-8.384-2.962c-9.682-3.947-19.909-6.575-30.271-7.993c-0.283-0.039-0.567-0.061-0.85-0.098
		c-6.914-1.327-13.881-2.379-20.878-3.166c-7.36-0.827-15.663-1.895-22.508,1.684c-3.443,1.801-5.929,4.887-7.097,8.579
		c-1.304,4.124-1.021,8.578-0.676,12.823c0.786,9.679,2.139,19.317,4.048,28.839c1.893,9.441,4.338,18.772,7.321,27.927
		c2.873,8.816,6.1,17.657,10.229,25.972c3.788,7.629,8.854,14.783,16.206,19.333c6.052,3.746,13.023,5.633,20.054,6.653
		c-5.183,0.789-10.333,1.747-15.412,2.855c-5.645,1.231-12.481,2.488-16.298,7.29c-2.109,2.654-2.673,5.916-2.516,9.236
		c0.168,3.557,0.778,6.979-0.141,10.49c-1.717,6.564-6.405,11.764-9.807,17.475c-3.398,5.704-6.234,12.995-3.697,19.58
		c2.308,5.992,8.661,9.524,10.013,15.959c1.38,6.569-1.792,13.205-5.919,18.117c-4.479,5.331-10.109,9.549-14.637,14.835
		c-2.187,2.553-4.176,5.328-5.543,8.412c-1.132,2.552-2.861,6.613-1.221,9.282c1.815,2.952,5.495,1.596,7.657-0.102
		c1.273-1,2.348-2.253,3.472-3.412c1.234-1.273,2.472-2.543,3.729-3.793c4.832-4.806,10.112-9.443,16.489-12.065
		c6.701-2.755,14.018-3.362,21.189-3.508c7.687-0.156,15.373,0.061,23.059-0.271c14.565-0.627,29.379-2.928,42.321-10.009
		c6.045-3.308,11.42-7.655,15.892-12.897c4.62-5.417,8.399-11.466,12.519-17.254c4.222-5.931,9.034-11.417,14.331-16.39l23.91-24.96
		c-1.69,2.789-3.239,5.664-4.689,8.606c-2.875,5.834-5.398,11.762-9.88,16.597c-2.078,2.241-4.482,4.116-7.223,5.476
		c-2.531,1.255-5.478,2.804-5.764,5.976c-0.24,2.661,2.058,4.706,4.578,4.943c2.932,0.275,5.778-1.518,7.929-3.326
		c4.52-3.799,7.247-9.155,10.832-13.746c4.046-5.183,9.137-9.458,13.869-13.986c10.268-9.825,18.995-21.109,27.4-32.541
		c2.031-0.267,3.815-1.494,5.353-2.889c1.149-0.814,2.216-1.748,3.145-2.753c1.952-2.112,3.999-4.889,4.576-7.758
		c0.163-0.811,0.129-1.589-0.059-2.306l-0.276-0.711c1.376-1.412,2.671-2.912,3.953-4.389c2.203-2.539,4.457-5.026,6.609-7.61
		c4.245-5.096,7.97-10.667,11.377-16.351c3.478-5.803,6.684-11.822,9.389-18.026c1.314-3.014,2.522-6.092,3.676-9.17
		c0.591-1.576,1.143-3.167,1.673-4.763C326.218,165.729,326.614,164.419,326.456,163.129z M154.426,304.685
		c0.365-0.418,0.761-0.81,1.132-1.223c3.63-2.583,7.89-4.377,12.29-5.071c2.448,0.738,4.968,1.201,7.536,1.331
		c-0.046,0.631-0.006,1.29-0.033,1.86c-0.056,1.163-0.298,2.317-0.606,3.438c-0.304,1.106-0.684,2.196-1.111,3.261
		c-0.213,0.532-0.47,1.04-0.628,1.591c-0.154,0.537-0.271,1.081-0.416,1.62c-0.257,0.466-0.509,0.934-0.758,1.404
		c-1.101,1.175-1.931,2.609-2.958,3.853c-1.179,1.429-2.372,2.841-3.72,4.115c-2.427,2.293-5.402,4.226-8.755,4.749
		c-3.039,0.474-6.462-0.266-8.622-2.563c-0.992-1.054-1.672-2.393-1.981-3.802c-0.229-1.042-0.215-2.01-0.077-2.99
		C148.349,312.231,151.225,308.352,154.426,304.685z M152.645,283.332c2.074-0.98,4.023-2.241,6.09-3.236
		c2.517-1.211,5.08-2.326,7.68-3.347c5.103-2.004,10.346-3.647,15.66-4.995c5.396-1.368,10.866-2.456,16.374-3.255
		c0.402-0.058,0.806-0.099,1.209-0.153c-4.822,1.177-9.463,2.955-13.939,5.106c-4.763,2.289-9.43,4.989-13.545,8.316
		c-2.262,1.828-4.543,3.642-6.675,5.624c-0.581,0.54-1.059,1.151-1.593,1.734c-0.462,0.503-1.003,0.889-1.501,1.35
		c-0.553,0.512-1.111,1.05-1.651,1.604c-0.387-0.157-0.774-0.311-1.157-0.485c-2.852-2.036-5.263-4.61-6.737-7.716
		C152.773,283.699,152.72,283.514,152.645,283.332z M151.103,293.12c-0.025,1.556-0.152,3.122-0.425,4.656
		c-0.192,1.075-0.476,2.136-0.8,3.183c-0.617,1.55-1.347,3.067-2.184,4.51c-1.582,2.728-3.661,5.212-6.306,6.965
		c-4.626,3.067-10.754,3.453-15.445,0.422c-0.335-0.517-0.629-1.064-0.842-1.663c-0.795-2.241-0.742-5.32,0.211-7.516
		c3.75-3.893,7.768-7.499,11.855-10.796c0.887-0.716,1.809-1.387,2.709-2.087c0.076-0.009,0.155-0.032,0.237-0.079
		c1.761-1.012,3.465-2.362,5.41-2.997c1.547-0.505,3.511-0.535,4.868,0.479c0.169,0.126,0.34,0.259,0.514,0.386
		C151.141,290.052,151.126,291.633,151.103,293.12z M124.647,270.319c0.858,0.726,1.765,1.288,2.705,1.723
		c-0.31,0.232-0.618,0.473-0.943,0.709c-0.943,0.685-1.93,1.315-2.946,1.886c-1.985,1.115-4.285,2.053-6.573,2.273
		c-4.158,0.4-5.881-3.079-6.687-6.59c0.066-1.383,0.305-2.758,0.721-4.084c0.774-2.466,2.16-4.656,3.932-6.525
		c0.892-0.941,1.851-1.812,2.898-2.579l0.223-0.15c0.196-0.023,0.393-0.042,0.583-0.078
		C118.901,261.813,120.81,267.072,124.647,270.319z M122.102,251.729c1.668-0.817,3.329-1.626,5.048-2.316
		c0.236-0.036,0.453-0.106,0.627-0.238c0.701-0.266,1.406-0.523,2.136-0.739c1.643-0.486,3.319-0.947,5.011-1.216
		c0.863-0.137,1.732-0.24,2.602-0.318c0.762-0.068,1.554-0.009,2.252-0.347c0.006-0.003,0.006-0.009,0.012-0.012
		c3.005-0.347,6.01-0.691,9.018-1.006c-0.968,0.429-1.913,0.901-2.819,1.381c-0.391,0.177-0.791,0.333-1.178,0.518
		c-3.013,1.436-5.697,3.327-8.532,5.062c-0.803,0.492-1.597,0.998-2.385,1.515c-2.745,1.733-5.623,3.522-7.885,5.841
		c-0.506,0.519-1.179,1.274-1.794,2.132c-0.303,0.272-0.604,0.544-0.906,0.816c-0.052-0.122-0.118-0.239-0.167-0.362
		C121.799,259.091,121.424,255.298,122.102,251.729z M112.219,286.119c0.187-0.631,0.512-1.252,0.774-1.881
		c7.107-4.146,14.496-7.829,22.044-11.059c1.716-0.152,3.445-0.504,5.132-0.954c2.57-0.686,5.067-1.591,7.524-2.599
		c0.818,0.007,1.595,0.219,2.106,0.931c0.55,0.766,0.663,1.682,0.616,2.605c-0.921,2.283-1.361,4.733-1.065,7.338
		c0.022,0.198,0.066,0.389,0.096,0.583c-2.022,1.123-3.921,2.481-5.782,3.839c-2.278,1.663-4.528,3.362-6.738,5.115
		c-1.238,0.982-2.437,2.01-3.645,3.028c-0.011,0.005-0.024,0.006-0.035,0.012c-1.046,0.559-1.902,1.401-2.813,2.153
		c-0.869,0.718-1.818,1.344-2.801,1.892c-0.957,0.534-1.942,1.016-2.973,1.391c-0.447,0.163-0.89,0.34-1.333,0.514
		c-1.61,0.049-3.134-0.044-4.753-0.607c-1.876-0.652-3.728-1.773-4.934-3.384c-1.232-1.646-1.872-3.712-1.894-5.76
		C111.735,288.193,111.913,287.156,112.219,286.119z M148.885,265.537c-4.782,2.096-10.134,4.339-15.43,4.455
		c-2.349,0.051-4.612-0.515-6.45-2.032c-0.565-0.467-1.065-1.007-1.534-1.574c1.498-3.643,3.693-6.851,6.503-9.629
		c1.759-1.213,3.678-2.25,5.5-3.239c3.042-1.651,6.125-3.196,9.212-4.757c1.48-0.749,2.987-1.467,4.529-2.078
		c1.612-0.639,3.29-1.087,4.924-1.66c0.131-0.046,0.212-0.135,0.283-0.228c5.555-0.523,11.116-1.003,16.692-1.379
		c8.279-0.557,16.742-1.397,25.032-0.697c4.025,0.34,7.956,1.162,11.758,2.526c3.399,1.219,6.662,2.778,9.923,4.32
		c3.897,1.842,8.035,3.855,12.314,5.115c-0.227-0.01-0.457-0.005-0.683-0.02c-1.198-0.082-2.433-0.214-3.63-0.089
		c-0.643-0.131-1.288-0.27-1.929-0.393c-5.174-0.992-10.423-1.627-15.684-1.903c-10.469-0.548-21.056,0.324-31.296,2.566
		c-5.098,1.116-10.158,2.434-15.063,4.229C158.74,260.942,153.869,263.351,148.885,265.537z M231.333,253.221
		c-3.397-1.088-6.656-2.559-9.89-4.05c-6.575-3.032-13.095-6.076-20.343-7.057c-8.226-1.113-16.649-0.421-24.896,0.099
		c-6.713,0.424-13.41,1.012-20.102,1.665c-0.046-0.011-0.071-0.048-0.124-0.05c-0.931-0.036-1.865,0.058-2.792,0.241
		c-0.265,0.016-0.521,0.081-0.774,0.164c-0.639,0.065-1.279,0.117-1.917,0.184c-3.842,0.403-7.682,0.846-11.518,1.319
		c-0.596-0.021-1.22,0.114-1.792,0.19c-0.243,0.032-0.484,0.081-0.726,0.117c-4.405,0.566-8.801,1.2-13.184,1.906
		c0.231-0.516,0.47-1.029,0.755-1.519c0.709-1.218,1.591-2.326,2.58-3.329c2.647-1.419,5.448-2.677,8.264-3.667
		c1.559-0.548,3.147-1.018,4.754-1.404c0.367-0.088,0.753-0.162,1.143-0.237c12.66-0.356,25.285-2.091,37.935-2.969
		c0.547-0.018,1.094-0.035,1.641-0.054c0.62-0.022,1.241-0.036,1.861-0.07c0.277-0.015,0.504-0.074,0.74-0.126
		c1.367-0.071,2.734-0.15,4.101-0.192c17.592-0.531,36.227,1.919,50.604,12.922c1.977,1.513,3.787,3.228,5.493,5.041
		c-1.902,1.185-4.072,1.888-6.297,2.171C234.987,254.222,233.148,253.802,231.333,253.221z M172.633,206.013
		c-3.001-4.747-5.546-9.802-7.526-15.058c-0.483-1.282-0.951-2.613-1.354-3.967c-0.076-0.634-0.143-1.268-0.185-1.905
		c-0.137-2.101-0.114-4.408,0.185-6.68l0.144-0.052c0.298-0.066,0.581-0.179,0.858-0.313c5.88-1.973,12.219-0.393,17.542,2.632
		c0.81,0.514,1.599,1.071,2.36,1.677l0.448,0.097c2.322,1.598,4.5,3.402,6.63,5.246c2.89,2.502,5.864,4.926,8.687,7.503
		c5.768,5.265,11.383,10.713,16.89,16.271c-0.445-0.205-0.886-0.417-1.341-0.598c-2.946-1.171-6.1-1.704-9.248-1.967
		c-3.565-0.298-7.156-0.189-10.728-0.084c-3.652,0.108-7.303,0.218-10.955,0.327c-3.356,0.1-6.711,0.217-10.066,0.345
		C174.165,208.349,173.379,207.194,172.633,206.013z M182.833,228.38c-1.015,1.528-2.533,2.582-4.259,3.117
		c-3.17,0.224-6.339,0.499-9.507,0.797c-3.407,0.096-6.815,0.191-10.222,0.293c-4.178,0.125-8.412,0.456-12.588,0.193
		c-2.767-0.175-5.733-0.937-7.881-2.768c-0.004-0.007-0.009-0.014-0.014-0.022c-0.59-1.079-0.95-2.287-0.981-3.52
		c-0.03-1.214,0.218-2.447,0.715-3.556c0.258-0.575,0.59-1.103,0.938-1.626c0.218-0.329,0.49-0.654,0.684-1.006
		c5.104,0.306,10.407-0.364,15.326-0.984c3.108-0.392,6.231-0.728,9.368-0.732c3.291-0.005,6.316,0.583,9.504,1.312l0.249,0.007
		C176.783,222.976,179.675,225.832,182.833,228.38z M201.391,195.352c-5.306-4.854-10.41-10.096-16.443-14.076
		c-5.129-5.395-13.086-7.75-20.388-6.558c0.481-1.554,1.133-3.03,2.067-4.313c2.341-2.322,5.319-3.735,8.533-4.464
		c1.728-0.127,3.474-0.013,5.184,0.254c1.795,0.28,3.591,0.885,5.413,0.852c0.761,0.254,1.518,0.519,2.267,0.814
		c2.559,1.004,5.066,2.123,7.48,3.442c2.388,1.304,4.683,2.788,6.843,4.443c1.05,0.804,2.066,1.652,3.043,2.543
		c0.506,0.461,1.001,0.92,1.53,1.355c0.253,0.208,0.501,0.423,0.76,0.625c0.188,0.146,0.35,0.219,0.518,0.283
		c1.784,1.466,3.554,2.952,5.349,4.404c2.502,2.023,4.973,4.091,7.387,6.218c2.369,2.087,4.688,4.232,6.947,6.437
		c1.194,1.166,2.348,2.393,3.529,3.591c7.651,8.432,14.752,17.414,21.224,26.796c0.114,0.238,0.229,0.475,0.327,0.708
		c0.555,1.321,0.952,2.71,1.221,4.116c0.539,2.818,0.494,5.931-0.082,8.742c-0.499-0.452-0.997-0.903-1.496-1.353
		c-1.515-1.365-3.05-2.706-4.591-4.041c-2.985-2.586-6.006-5.117-9.062-7.617c-3.053-2.498-6.071-5.036-9.106-7.556
		c-2.218-1.842-4.433-3.731-6.756-5.456c-0.623-1.119-1.994-1.936-3.052-2.615c-0.406-0.396-0.806-0.797-1.212-1.193
		C213.108,206.166,207.277,200.736,201.391,195.352z M162.878,163.35c-4.198,3.886-4.556,10.567-4.364,16.14
		c-11.924-1.137-23.868-2.124-35.778-3.382c-5.546-0.586-11.232-1.736-15.871-5.005c-4.102-2.89-7.16-7.961-6.162-13.117
		c0.501-2.591,1.982-4.77,4.277-6.095c0.906-0.523,1.851-0.841,2.817-1.008c9.66,2.736,19.42,5.123,29.281,7.011
		c6.354,1.216,12.741,2.259,19.152,3.129c2.807,0.381,5.619,0.718,8.433,1.036C164.034,162.421,163.43,162.838,162.878,163.35z
		 M115.326,181.749c0.139-1.349,0.62-2.529,1.143-3.723c6.669,1.379,13.635,1.546,20.407,2.042c7.242,0.53,14.489,1.016,21.734,1.51
		c0.35,6.314,1.677,12.574,3.885,18.497c-1.463-0.222-2.989-0.276-4.406-0.485c-2.295-0.34-4.578-0.768-6.855-1.213
		c-4.617-0.902-9.223-1.865-13.829-2.821c-4.398-0.912-8.864-1.669-13.214-2.794c-3.447-0.892-6.769-2.487-8.188-5.962
		C115.349,185.197,115.149,183.464,115.326,181.749z M123.009,199.663c0.521-1.566,1.417-2.819,2.54-3.931
		c2.356,0.517,4.722,0.993,7.082,1.487c5.095,1.065,10.187,2.14,15.278,3.222c2.806,0.596,5.613,1.177,8.45,1.604
		c1.399,0.211,2.802,0.399,4.212,0.524c1.029,0.091,2.006,0.184,2.986,0.082c2.056,4.879,4.714,9.489,7.848,13.742
		c-3.878-0.873-8.108-0.703-11.939-0.366c-5.506,0.484-10.96,1.566-16.499,1.65c-8.053,0.123-18.838-2.774-20.456-12.059
		C122.164,203.635,122.375,201.568,123.009,199.663z M205.309,231.732c-2.055-0.245-4.11-0.413-6.165-0.532
		c-0.111-0.135-0.238-0.259-0.402-0.336c-1.858-0.86-3.655-1.829-5.422-2.847c-6.704-4.912-12.695-10.856-17.621-17.554
		c5.941-0.104,11.881-0.261,17.821-0.409c6.67-0.167,13.481-0.545,19.914,1.561c1.638,0.536,3.222,1.202,4.712,2.074
		c0.71,0.415,1.406,0.865,2.053,1.374c0.66,0.519,1.198,1.173,1.963,1.543l0.226,0.07c1.767,1.825,3.505,3.673,5.251,5.515
		c-0.035,0.126-0.02,0.267,0.075,0.408c3.14,4.688,6.906,8.945,10.489,13.306c1.773,2.159,3.565,4.304,5.315,6.482
		c0.919,1.144,1.85,2.277,2.784,3.409c0.508,0.616,1.006,1.297,1.533,1.943c-1.539,0.238-3.109,0.274-4.583-0.033
		c-0.012-0.003-0.021,0.002-0.033,0C232.995,238.237,219.038,233.364,205.309,231.732z M189.727,133.161
		c-0.508,0.147-1.078,0.168-1.659,0.15l-0.005-0.002c-1.782-0.514-3.551-1.069-5.311-1.651c-2.009-0.665-4.018-1.329-6.008-2.047
		c-0.461-0.166-0.926-0.312-1.391-0.465c-0.077-0.04-0.156-0.076-0.233-0.116c-0.132-0.139-0.294-0.255-0.521-0.305
		c-0.046-0.01-0.094-0.016-0.141-0.024c-0.159-0.081-0.319-0.158-0.478-0.238c-0.487-0.313-1.038-0.554-1.55-0.807
		c-0.988-0.487-1.995-0.933-2.974-1.438c-1.98-1.02-3.872-2.19-5.512-3.709c-1.731-1.603-3.116-3.711-3.778-5.998
		c-0.104-1.432,0.102-2.883,0.657-4.259c0.095-0.237,0.238-0.433,0.351-0.655c1.432-1.594,3.212-2.891,5.162-3.841
		c3.388-0.106,6.853,0.234,10.187,0.635c7.386,0.89,14.787,2.8,21.203,6.652c-0.868,0.43-1.677,0.982-2.347,1.625
		c-1.196,1.15-2.004,2.509-2.511,3.975c-0.846,1.559-1.453,3.249-1.76,5.004c-0.262,1.499-0.361,3.007-0.327,4.528
		C190.804,131.245,191.007,132.79,189.727,133.161z M197.937,118.209c0.067-0.055,0.123-0.12,0.192-0.173l0.319,0.088
		c1.398-0.163,2.864,0.012,4.263,0.111c0.762,0.054,1.383,0.128,1.999,0.209c0.56,0.073,1.302,0.245,1.974,0.356
		c0.112,0.078,0.228,0.148,0.34,0.226c4.106,2.894,7.703,6.345,11.476,9.639l0.33,0.136c0.296,1.786,0.686,3.564,1.057,5.319
		c1.239,5.866,2.787,11.667,4.632,17.372c0.739,2.285,1.551,4.547,2.395,6.797c0.099,0.544,0.178,1.092,0.231,1.644
		c0.054,0.566,0.096,1.139,0.099,1.708c0.001,0.203,0.041,0.995-0.17,1.126l-0.126-0.048c-0.264-0.061-0.52-0.278-0.741-0.424
		c-0.486-0.321-0.96-0.663-1.436-1c-1.977-1.4-3.934-2.841-5.858-4.313c-1.351-1.034-2.726-2.046-4.084-3.075
		c-0.366-0.287-0.734-0.57-1.095-0.855c-1.291-1.016-2.586-2.036-3.814-3.128c-2.469-2.198-4.867-4.543-6.951-7.113
		c-3.868-4.771-6.735-10.391-6.806-16.653C196.133,123.49,196.804,120.694,197.937,118.209z M234.763,132.962
		c0.367,1.571,0.69,3.152,1.003,4.737c0.657,3.322,1.361,6.648,2.184,9.934c0.396,1.579,0.849,3.142,1.34,4.694
		c0.469,1.481,0.826,3.016,1.417,4.452l0.167,0.382c-1.064-1.172-2.199-2.29-3.441-3.325c-3.667-3.057-7.78-5.694-11.998-7.977
		c-0.597-2.057-1.169-4.122-1.687-6.202c-0.694-2.788-1.319-5.593-1.871-8.412c-0.471-2.402-1.079-4.886-0.908-7.351
		c0.066-0.945,0.34-1.805,0.796-2.513c0.171-0.183,0.323-0.387,0.472-0.598c0.632-0.66,1.485-1.103,2.58-1.187
		c1.243-0.096,2.406,0.236,3.493,0.771c0.334,0.469,0.66,0.944,0.974,1.413c0.851,1.27,1.698,2.56,2.41,3.913
		C232.933,128.045,233.929,130.459,234.763,132.962z M232.576,123.466c3.569,3.076,6.923,6.413,10.04,9.943
		c6.692,7.577,12.223,16.148,16.495,25.305c2.392,5.125,4.353,10.45,5.877,15.897c0.382,1.362,0.721,2.729,1.031,4.099
		c0.035,0.439,0.071,0.877,0.098,1.315c0.102,1.685,0.186,3.375,0.224,5.063c0.078,3.457-0.053,6.917-0.32,10.364
		c-0.132,1.701-0.293,3.399-0.475,5.094c-0.274-0.447-0.558-0.884-0.86-1.305c-0.654-0.913-1.181-1.921-1.761-2.883
		c-0.645-1.07-1.388-2.066-2.041-3.132l-0.238-0.2c-0.87-1.711-1.717-3.432-2.561-5.138c-0.085-0.172-0.233-0.208-0.38-0.193
		c-1.313-2.61-2.648-5.211-3.878-7.858c-2.413-5.193-4.715-10.572-7.677-15.486c-0.425-1.127-1.192-2.205-1.69-3.251
		c-0.674-1.414-1.381-2.812-2.063-4.222c-0.745-1.539-1.587-3.015-2.237-4.598c-0.619-1.508-1.142-3.058-1.615-4.617
		c-1.95-6.426-2.139-13.236-4.197-19.643C233.867,126.515,233.289,124.955,232.576,123.466z M221.403,117.155
		c-0.661,1.022-1.603,1.812-2.869,2.119c-0.866,0.21-1.874,0.17-2.793-0.097c-0.352-0.102-0.708-0.2-1.053-0.326
		c-2.976-2.752-5.949-5.521-8.767-8.414c-1.521-1.562-3.217-3.621-2.863-5.965c0.112-0.742,0.443-1.441,0.903-2.057
		c2.638-1.033,5.753-0.079,8.028,1.4c1.273,0.828,2.333,1.884,3.434,2.917c0.973,0.912,1.979,1.782,2.897,2.751
		c1.651,1.741,3.219,3.892,3.216,6.393C221.536,116.304,221.486,116.733,221.403,117.155z M225.781,147.046
		c3.356,2.095,6.749,4.115,9.84,6.617c2.882,2.333,5.356,4.99,7.454,7.974c0.602,1.009,1.203,2.245,2.018,3.179l0.163,0.261
		c2.524,4.494,4.591,9.29,6.821,13.935c2.404,5.009,4.392,10.132,6.425,15.297c1.122,2.851,2.272,5.687,3.32,8.566
		c0.709,1.947,1.339,3.949,2.071,5.901c-0.509,0.386-1.139,0.403-1.969-0.168c-1.46-1.005-2.681-2.498-3.932-3.752
		c-1.383-1.386-2.733-2.804-4.108-4.199c-2.207-2.239-4.356-4.537-6.492-6.846c-0.359-0.575-0.705-1.162-1.071-1.731
		c-1.257-1.957-2.569-3.879-3.91-5.78c-2.273-4.892-4.984-9.593-7.275-14.483c-2.395-5.112-4.531-10.342-6.404-15.667
		C227.674,153.139,226.691,150.104,225.781,147.046z M222.213,74.054c0.536-1.537,1.779-3.036,3.494-3.183
		c0.64-0.055,1.294,0.026,1.94,0.183c0.201,0.125,0.404,0.25,0.603,0.373c1.23,0.759,2.428,1.57,3.59,2.43
		c1.072,0.794,2.098,1.649,3.101,2.529c0.066,0.06,0.14,0.116,0.212,0.172c0.027,0.024,0.056,0.044,0.083,0.068
		c0.676,0.602,1.349,1.387,2.086,2.027c3.474,4.825,6.677,9.845,9.529,15.042c10.129,18.452,16.181,38.861,19.216,59.635
		c0.712,4.871,1.242,9.769,1.654,14.679c-0.442-2.422-0.956-4.833-1.553-7.238c-1.305-5.259-2.703-10.507-4.587-15.592
		c-3.799-10.254-8.681-20.05-14.29-29.431c-5.709-9.549-12.119-18.658-18.936-27.444c-2.067-2.663-4.168-5.321-6.32-7.941
		c-0.131-1.022-0.174-2.047-0.217-3.084C221.771,76.184,221.85,75.095,222.213,74.054z M222.203,85.665
		c0.191,0.106,0.374,0.219,0.555,0.331c0.503,0.628,1.014,1.259,1.507,1.882c13.298,16.807,25.002,34.963,33.431,54.717
		c2.365,5.543,4.504,11.189,6.309,16.939c1.294,4.122,2.299,8.365,3.181,12.616c-1.243-4.178-2.734-8.278-4.467-12.28
		c-4.242-9.801-9.987-18.935-16.931-27.047c-2.905-3.394-6.045-6.576-9.376-9.549c-0.329-1.225-1.473-2.362-2.235-3.272
		c-0.988-1.179-2.091-2.264-3.206-3.321c-2.337-2.217-4.862-4.223-7.286-6.343c-4.767-4.168-8.962-8.939-12.472-14.211
		c-0.983-1.477-1.923-3.002-2.825-4.549c-0.254-1.165-0.457-2.344-0.523-3.571c-0.044-0.818-0.016-1.715,0.129-2.585
		c0.513-0.639,1.192-1.176,1.814-1.527c1.535-0.867,3.453-0.856,5.15-0.623c1.691,0.232,3.357,0.672,4.945,1.297
		C220.694,84.88,221.46,85.253,222.203,85.665z M177.881,42.504c0.677-1.127,1.624-2.068,2.752-2.744
		c0.962-0.577,2.023-1.146,3.133-1.406c0.05,0.003,0.1,0,0.15,0.004c4.766,0.357,9.298,2.348,13.464,4.567
		c4.214,2.244,8.274,4.777,12.155,7.557c2.34,1.677,4.6,3.456,6.797,5.308c0.229,0.286,0.438,0.59,0.635,0.895
		c0.817,1.265,1.369,2.637,1.564,4.138c0.093,0.714,0.102,1.423,0.037,2.125c-1.001,0.595-1.731,1.585-2.215,2.699
		c-0.969,1.275-1.455,2.846-1.299,4.446c-0.652-0.071-1.294-0.225-1.896-0.508c-0.678-0.318-1.424-0.755-2.053-1.277
		c-0.195-0.191-0.389-0.383-0.585-0.573c-0.081-0.093-0.178-0.178-0.249-0.276c-0.056-0.078-0.13-0.131-0.209-0.173
		c-1.463-1.395-2.954-2.76-4.506-4.059c-8.095-6.771-17.694-12.062-28.129-13.76C176.489,47.236,176.614,44.616,177.881,42.504z
		 M169.695,63.163c0.328-0.879,0.719-1.731,1.186-2.55l0.218-0.192c1.66-2.451,4.883-3.826,7.746-4.16
		c3.511-0.41,6.89,0.561,10.111,1.878c3.505,1.433,6.886,3.28,10.142,5.205c3.14,1.857,6.133,3.93,8.771,6.46
		c0.311,0.299,0.602,0.612,0.898,0.921c0.341,0.623,0.67,1.251,0.974,1.887c0.615,1.286,1.424,2.734,1.511,4.183
		c0.025,0.418-0.037,0.818-0.236,1.162c-2.458-0.4-5.226-0.153-6.656,2.171c-0.753,1.224-0.844,2.729-0.783,4.128
		c0.024,0.551,0.085,1.102,0.135,1.653c-0.199,0.76-0.45,1.466-0.85,2.137c-0.471,0.79-1.093,1.416-1.93,1.829
		c-0.675,0.332-1.756,0.647-2.547,0.409c-0.158-0.047-0.297-0.026-0.425,0.022c-5.542-3.453-11.315-6.532-17.307-9.136
		c-3.001-1.303-6.041-2.514-9.123-3.611c-0.225-0.08-0.457-0.165-0.685-0.248c0.026-0.156,0.029-0.321-0.022-0.501
		C169.598,72.443,168.531,67.657,169.695,63.163z M161.693,90.502c0.698-1.532,1.613-2.915,2.677-4.164
		c0.19-0.042,0.379-0.083,0.57-0.126c0.228-0.052,0.46-0.084,0.688-0.131c0.201,0.049,0.418,0.065,0.665-0.005
		c0.592-0.167,1.184-0.299,1.776-0.413c0.635-0.086,1.271-0.172,1.911-0.222c2.757-0.216,5.478-0.099,8.22-0.036
		c0.194,0.014,0.387,0.027,0.582,0.042l0.26-0.027c0.103,0.002,0.207,0.003,0.31,0.006c2.339,0.447,4.685,0.882,6.964,1.524
		c1.266,0.622,2.523,1.261,3.77,1.917c0.592,0.353,1.189,0.699,1.755,1.097c1.887,1.327,3.759,2.784,5.32,4.49
		c0.734,0.802,1.369,1.692,1.842,2.674c0.427,0.887,0.462,1.89,0.939,2.714c-0.107,0.079-0.222,0.142-0.326,0.227
		c-2.5,2.03-3.324,5.568-2.206,8.555c0.272,0.725,0.661,1.383,1.122,1.983l-0.186-0.1c-8.261-4.146-17.237-6.657-26.458-7.337
		c-2.544-0.188-5.099-0.231-7.647-0.124c-1.087,0.046-2.212,0.108-3.336,0.21c-0.446-1.882-0.797-3.774-0.772-5.728
		C160.163,95.123,160.695,92.694,161.693,90.502z M143.409,131.508l0.353-0.251c0.158-0.067,0.316-0.127,0.472-0.178
		c1.395-0.46,2.865-0.776,4.353-1.009c2.648-0.031,5.302,0.063,7.905,0.075c2.641,0.011,5.282,0.056,7.921,0.162
		c2.177,0.397,4.343,0.844,6.493,1.357c0.77,0.217,1.544,0.413,2.307,0.665c1.163,0.385,2.308,0.815,3.448,1.259
		c9.288,4.931,18.211,10.551,26.563,16.926c12.695,9.69,24.162,21.143,33.746,33.924c9.409,12.546,17.274,26.412,22.675,41.157
		c0.029,0.221,0.036,0.443,0.059,0.665c-0.038,0.108-0.062,0.222-0.066,0.337c-0.288-0.003-0.592-0.196-0.905-0.427
		c-0.944-0.696-1.84-1.469-2.766-2.187c-1.767-1.372-3.429-2.931-5.055-4.466c-1.56-1.473-3.164-2.898-4.678-4.419
		c-3.614-4.922-7.438-9.692-11.456-14.292c-5.021-5.747-10.331-11.244-15.907-16.454c-5.239-4.894-10.778-9.515-16.785-13.445
		c-5.396-3.531-11.229-6.471-17.41-8.347c-5.989-2.963-11.964-5.893-17.738-9.277c-6.015-3.525-11.846-7.363-17.461-11.496
		c-1.568-1.154-3.154-2.317-4.704-3.523c-0.062-0.143-0.156-0.284-0.296-0.419C142.626,136.055,142.388,133.526,143.409,131.508z
		 M84.479,131.962c0.885-1.503,2.889-2.019,4.471-2.373c4.863-1.087,9.929-1.538,14.902-1.691
		c5.746-0.177,11.499,0.176,17.182,1.036c2.789,0.422,5.547,0.973,8.295,1.606c2.124,0.49,4.217,1.108,6.336,1.612
		c0.073,0.333,0.162,0.668,0.301,1.004c1.325,3.227,4.427,5.339,7.058,7.437c5.899,4.702,12.049,9.086,18.433,13.106
		c3.17,1.996,6.418,3.925,9.714,5.772c-1.219-0.144-2.439-0.285-3.66-0.413c-2.681-0.281-5.359-0.592-8.033-0.934
		c-5.4-0.69-10.784-1.515-16.146-2.458c-10.613-1.867-21.172-4.172-31.584-6.951c-3.551-0.948-7.125-1.917-10.625-3.077
		c-3.301-2.047-7.131-3.039-10.664-4.693c-1.712-1.072-3.299-2.313-4.599-3.797C84.698,135.819,83.452,133.707,84.479,131.962z
		 M73.624,152.8c-2.004-3.147-2.553-7.38-1.208-10.885c0.369-0.962,0.921-1.864,1.587-2.667c1.793-0.505,3.715-0.456,5.502,0.236
		c1.622,0.63,2.962,1.768,4.209,2.996c0.588,0.812,1.229,1.568,1.955,2.226c0.371,0.486,0.758,0.96,1.161,1.418
		c0.909,1.03,2.075,1.897,2.826,3.056c0.552,0.853,0.506,1.588,0.052,2.287c-2.454,1.427-4.721,3.203-7.399,4.174
		c-1.706,0.618-3.599,0.907-5.325,0.19C75.573,155.244,74.432,154.069,73.624,152.8z M80.067,177.894l-2.008-7.178
		c-1.128-4.031,1.932-8.065,6.117-7.994c5.707,0.097,10.277,2.242,13.71,6.435c2.582,3.154,1.389,7.929-2.316,9.628l-6.828,3.13
		C85.229,183.526,81.108,181.616,80.067,177.894z M89.373,200.763c-2.59-4.371,0.089-9.973,5.119-10.691l3.997-0.571
		c2.093-0.299,4.215,0.338,5.778,1.763c4.606,4.2,12.615,13.219,1.062,16.726C97.342,210.415,92.334,205.761,89.373,200.763z
		 M117.031,230.5c-0.284-0.026-0.592-0.056-0.909-0.089c-2.431-0.412-4.825-1.178-7.076-2.267c-0.912-0.779-1.507-1.825-1.526-3.242
		c-0.028-2.136,1.154-4.046,2.765-5.524c2.132-1.036,4.501-1.458,6.896-1.433c3.202,0.034,6.58,0.711,9.568,1.87
		c2.414,0.936,4.786,2.731,4.933,5.53c0.155,2.969-2.755,4.032-5.156,4.646c-1.571,0.402-3.188,0.648-4.815,0.741
		C120.15,230.704,118.588,230.64,117.031,230.5z M89.942,249.527c5.343-3.288,11.156-5.567,17.195-7.237
		c3.028-0.837,6.129-1.499,9.243-1.919c0.991-0.134,1.986-0.231,2.982-0.317c0.163,0.024,0.33,0.018,0.49,0.061l0.052,0.028
		l0.141,0.095l0.031,0.032l0.005,0.004c-0.705,0.815-1.255,1.827-1.665,2.71c-0.713,1.536-1.146,3.175-1.866,4.706
		c-1.499,3.189-3.905,5.676-6.877,7.542c-3.393,2.13-7.169,3.462-10.978,4.634c-3.223,0.992-7.025,1.527-9.553-0.987
		c-0.01-0.089-0.012-0.176-0.022-0.265C88.75,255.543,88.296,252.284,89.942,249.527z M81.748,302.676
		c-1.915,0.51-3.751,0.099-5.16-1.312c-0.839-0.84-1.514-1.903-2.111-2.997c-0.012-1.048,0.085-2.104,0.293-3.144
		c1.337-6.663,5.702-11.985,9.262-17.575c1.227-1.926,2.364-3.926,3.288-6.019c2.496-2.303,5.28-4.38,8.193-6.237
		c0.682-0.319,1.373-0.615,2.087-0.874c0.967-0.349,2.065-0.714,3.103-0.717c0.904-0.002,1.759,0.037,2.621,0.338
		c0.407,0.142,0.798,0.356,1.145,0.614l0.109,0.084c1.318,2.41,2.138,5.139,2.212,7.836c0.051,1.846-0.167,3.69-0.688,5.463
		c-0.258,0.877-0.557,1.741-0.953,2.566c-0.382,0.795-0.856,1.566-0.986,2.438c-1.194,1.519-2.566,2.92-3.972,4.199
		c-4.099,3.73-8.954,6.794-12.411,11.172c-0.152,0.167-0.304,0.334-0.456,0.491C85.745,300.633,83.98,302.082,81.748,302.676z
		 M106.157,328.282c-0.903,2.351-1.628,4.763-2.216,7.207c-0.095,0.161-0.179,0.329-0.277,0.488
		c-0.62,1.012-1.329,1.951-2.089,2.857c-3.384,3.313-8.404,4.364-12.835,3.038c-0.006-0.022-0.017-0.042-0.022-0.065
		c-0.37-1.478-0.036-3.092,0.129-4.578c0.337-3.021,0.353-6.05,0.036-9.074c-0.607-5.783-2.213-11.352-5.319-16.277
		c1.982-4,4.244-7.8,7.257-11.164c3.595-4.015,7.919-7.329,12.37-10.337c1.43-0.967,2.9-1.876,4.362-2.796
		c-0.962,4.15,1.359,8.656,3.611,12.02c1.33,1.987,2.9,4.04,3.698,6.316c0.734,2.093,0.842,4.919-0.344,6.872
		c-0.035,0.057-0.018,0.112-0.027,0.168C111.125,317.722,108.254,322.825,106.157,328.282z M129.749,335.975
		c-0.291,0.24-0.541,0.547-0.814,0.814c-0.462,0.451-0.936,0.894-1.421,1.319c-1.036,0.908-2.168,1.768-3.354,2.47
		c-2.443,1.448-5.273,2.075-8.099,1.704c-0.911-0.12-1.817-0.369-2.682-0.723c-0.313-0.306-0.627-0.603-0.882-0.898
		c-0.875-1.015-1.628-2.159-2.26-3.34c-0.622-1.161-1.103-2.403-1.494-3.66c-0.186-0.596-0.359-1.202-0.507-1.813
		c0.134-0.55,0.236-1.111,0.374-1.663c0.264-1.059,0.574-2.113,0.937-3.143c0.756-2.145,1.747-4.226,3.136-6.035
		c1.333-1.737,2.838-3.407,4.459-4.879c1.487-1.35,3.102-2.417,4.774-3.476c0.279,0.032,0.56,0.058,0.833,0.143
		c0.045,0.017,0.092,0.005,0.137,0.014c0.916,2.151,2.533,4.007,4.549,5.194c2.912,1.713,6.032,1.799,9.09,1.094
		c0.356,0.984,0.632,2.025,0.701,3.056c0.008,0.118-0.008,0.238-0.003,0.356c-0.082,0.274-0.158,0.548-0.239,0.823
		c-0.488,1.659-1.138,3.263-1.907,4.812C133.651,331.013,131.846,333.587,129.749,335.975z M166.521,326.188
		c-0.322,1.079-0.605,2.168-0.871,3.262c-0.077,0.221-0.148,0.449-0.236,0.661c-0.664,1.589-1.523,3.114-2.584,4.473
		c-1.059,1.355-2.395,2.557-3.8,3.543c-0.691,0.485-1.415,0.932-2.156,1.335c-0.405,0.221-0.823,0.415-1.234,0.625
		c-0.247,0.126-0.459,0.277-0.668,0.434c-3.734,0.973-7.528,1.697-11.307,2.209c-1.012,0.137-2.029,0.228-3.044,0.338
		c-0.105-0.074-0.22-0.137-0.352-0.175c-1.329-0.385-2.573-1.083-3.583-2.087c-0.547-0.543-0.939-1.021-1.319-1.636
		c-0.178-0.289-0.346-0.574-0.459-0.895c-0.053-0.149-0.12-0.331-0.169-0.515c2.415-6.214,5.311-12.2,8.717-17.89
		c0.09,0.653,0.244,1.291,0.459,1.883c1.043,2.882,3.335,4.935,6.168,6.022c6.184,2.373,12.79-0.599,17.214-5.009
		c0.182-0.182,0.341-0.388,0.518-0.575C167.355,323.512,166.922,324.844,166.521,326.188z M180.612,327.675
		c-2.654,2.323-5.548,4.298-8.583,6.031l-0.251,0.049l-0.155,0.024c-0.338,0.038-0.682,0.052-1.023,0.04
		c-0.412-0.22-0.868-0.35-1.351-0.396l-0.214-0.13l-0.026-0.014l-0.038-0.036l-0.153-0.139l-0.329-0.317
		c-0.104-0.113-0.126-0.141-0.276-0.345l-0.06-0.089l-0.1-0.164c-0.111-0.193-0.097-0.42-0.054-0.642
		c0.044-0.225-0.022-0.404-0.13-0.541c0.217-1.01,0.428-2.022,0.693-3.02c0.475-1.79,1.044-3.565,1.707-5.301
		c0.323,0.592,0.751,1.125,1.267,1.509c2.535,1.893,6.139,1.347,8.98,0.568c1.733-0.475,3.402-1.168,4.986-2.019
		C183.975,324.481,182.363,326.142,180.612,327.675z M206.061,295.464c-4.531,5.115-8.408,10.697-12.273,16.319
		c-0.585,0.851-1.176,1.699-1.77,2.544c-1.333,1.192-2.478,2.636-3.845,3.787c-1.826,1.538-3.94,2.807-6.177,3.649
		c-2.147,0.808-4.673,1.443-6.976,1.092c-1.732-0.264-3.25-1.463-3.494-3.137c2.415-5.137,5.214-9.95,8.548-14.55
		c0.969-1.336,2.014-2.614,3.101-3.856c0.734-0.838,1.396-1.723,2.052-2.615c1.044-0.258,2.078-0.554,3.099-0.884
		c8.035-2.599,15.449-6.908,22.658-11.233c0.277-0.167,0.556-0.333,0.834-0.499c0.967-0.096,1.952,0.236,2.488,1.049
		C211.419,289.768,208.654,292.538,206.061,295.464z M228.212,273.152c-1.187,0.258-1.364,0.629-2.526,0.922
		c-2.666,0.671-4.86,1.617-7.451,2.535c-5.111,1.811-9.963,4.154-14.768,6.651c-4.909,2.55-9.634,5.447-14.793,7.497
		c-4.811,1.912-9.886,3.351-15.084,3.554c-4.175,0.162-8.16-0.474-11.969-1.886c1.139-1.35,2.283-2.684,3.656-3.829
		c2.046-1.705,3.949-3.531,6.082-5.141c4.086-3.084,8.562-5.815,13.132-8.116c7.855-3.955,16.387-6.688,25.1-8.013
		c2.228-0.173,4.457-0.329,6.683-0.476c6.031-0.398,12.085-0.534,18.129-0.645C232.755,268.557,229.72,270.71,228.212,273.152z
		 M236.25,263.622c-1.301,0.252-2.6,0.521-3.917,0.671c-1.628,0.186-3.264,0.315-4.896,0.452c-3.267,0.274-6.533,0.562-9.798,0.867
		c-0.821,0.076-1.639,0.166-2.458,0.25c-4.847,0.368-9.682,0.879-14.494,1.589c-11.155,1.646-22.127,3.9-32.73,7.813
		c-2.809,1.037-5.582,2.173-8.305,3.419c-2.443,1.118-5.106,2.176-7.383,3.669c-0.152-0.496-0.269-0.997-0.351-1.499l-0.008-0.043
		c-0.492-3.093,0.297-6.273,1.823-9.1c1.522-2.819,3.725-5.163,5.972-7.445c3.798-1.667,7.644-3.211,11.591-4.509
		c10.524-3.459,21.586-5.123,32.657-5.157c6.154-0.018,12.315,0.451,18.389,1.444c3.031,0.495,6.041,1.116,9.02,1.861
		c2.55,0.638,5.056,1.417,7.574,2.159C238.02,261.236,237.128,262.424,236.25,263.622z"/>
	<path class="st0" d="M514.55,427.192c-0.97-2.186-2.379-4.153-3.929-5.963c-3.209-3.747-7.2-6.737-10.375-10.516
		c-2.925-3.481-5.174-8.186-4.196-12.842c0.958-4.561,5.461-7.065,7.097-11.312c1.798-4.668-0.212-9.835-2.621-13.879
		c-2.411-4.048-5.734-7.734-6.951-12.387c-0.651-2.489-0.219-4.915-0.1-7.436c0.111-2.353-0.288-4.666-1.784-6.547
		c-2.705-3.403-7.551-4.294-11.552-5.167c-3.6-0.785-7.251-1.464-10.925-2.024c4.984-0.723,9.925-2.06,14.215-4.716
		c5.211-3.225,8.802-8.296,11.487-13.704c2.927-5.894,5.214-12.161,7.251-18.41c2.114-6.49,3.848-13.104,5.19-19.796
		c1.353-6.749,2.312-13.581,2.87-20.442c0.244-3.01,0.445-6.167-0.479-9.09c-0.828-2.617-2.59-4.805-5.03-6.081
		c-4.852-2.537-10.737-1.78-15.954-1.194c-4.959,0.558-9.898,1.303-14.799,2.244c-0.201,0.026-0.402,0.042-0.603,0.07
		c-7.345,1.005-14.594,2.868-21.457,5.666c-1.994,0.663-3.976,1.361-5.943,2.1c-0.089-1.905-0.176-3.81-0.293-5.714
		c-0.516-8.335-1.709-16.731-5.062-24.439c-1.582-3.636-3.168-7.213-3.66-11.187c-0.402-3.246-0.445-6.573-1.283-9.752
		c-0.817-3.101-2.597-5.977-5.543-7.446c-3.189-1.591-6.896-1.342-10.238-0.397c-3.437,0.972-6.63,2.685-9.69,4.496
		c-2.995,1.773-5.856,3.757-8.597,5.901c-11.031,8.63-19.755,20.044-26.061,32.497c-7.1,14.021-10.989,29.325-12.692,44.903
		c-0.941,8.609-1.156,17.286-0.902,25.939c0.169,5.745,0.552,11.51,1.118,17.248c0.024,0.627,0.039,1.254,0.07,1.88
		c0.067,1.357,0.685,7.17,0.789,8.177l-5.79-5.28c-1.207-1.119-2.655-2.113-4.26-2.411c-0.043-0.079-0.085-0.16-0.128-0.239
		l-0.001,0.004l-1.032,0.015l0.056,0.124l-0.066-0.003c-0.088,0.004-0.166,0.034-0.252,0.043c-0.339-0.54-0.672-1.084-0.987-1.638
		c-1.094-1.924-2.107-3.892-3.064-5.887c-3.42-7.125-5.848-14.657-7.213-22.441c-0.551-3.144-0.879-6.317-1.017-9.503l0.074-0.089
		c0.152-0.284,0.224-0.533,0.258-0.838c1.722-1.253,3.79-3.207,2.714-5.541c-0.858-1.86-3.622-2.095-4.418-0.059
		c-0.372,0.95-0.233,2.059-0.184,3.051c0.054,1.108,0.152,2.214,0.258,3.318c0.216,2.255,0.535,4.495,0.881,6.732
		c0.692,4.473,1.78,8.833,3.087,13.162c1.301,4.31,2.938,8.515,4.883,12.575c0.974,2.033,2.046,4.022,3.184,5.968
		c0.258,0.442,0.531,0.88,0.792,1.322c-0.801,0.239-1.468,0.728-1.951,1.356c-1.037-1.004-2.102-1.984-3.085-3.031
		c-1.601-1.705-3.1-3.519-4.524-5.375c-5.208-6.787-9.851-13.88-13.36-21.705c-0.93-2.073-1.789-4.165-2.582-6.283
		c0.291-0.018,0.58-0.175,0.743-0.554c1.014-2.356,1.482-5.706,0.134-8.04c-0.526-0.911-1.451-1.769-2.585-1.595
		c-0.945,0.146-1.528,0.965-1.64,1.87c-0.112,0.914,0.169,1.843,0.453,2.7c0.376,1.132,0.767,2.259,1.186,3.376
		c0.818,2.182,1.674,4.364,2.606,6.5c1.917,4.398,4.19,8.664,6.655,12.777c2.415,4.029,5.055,7.978,8.064,11.59
		c1.526,1.832,3.123,3.594,4.685,5.394c0.908,1.047,1.826,2.11,2.802,3.111l-0.196,0.504c-0.133,0.508-0.158,1.06-0.042,1.634
		c0.41,2.034,1.86,4.002,3.244,5.499c0.658,0.712,1.414,1.374,2.229,1.951c1.09,0.989,2.354,1.858,3.794,2.048
		c5.957,8.103,12.143,16.102,19.422,23.066c3.354,3.209,6.963,6.24,9.831,9.914c2.541,3.255,4.474,7.051,7.678,9.744
		c1.525,1.282,3.543,2.553,5.621,2.358c1.787-0.168,3.415-1.617,3.245-3.503c-0.203-2.249-2.292-3.346-4.086-4.236
		c-1.943-0.964-3.647-2.293-5.12-3.882c-3.177-3.428-4.966-7.63-7.004-11.765c-1.028-2.085-2.126-4.123-3.324-6.1l16.948,17.692
		c3.754,3.525,7.166,7.414,10.158,11.618c2.921,4.103,5.599,8.391,8.874,12.23c3.17,3.716,6.98,6.797,11.265,9.142
		c9.173,5.019,19.674,6.65,29.998,7.095c5.448,0.235,10.896,0.081,16.345,0.192c5.083,0.103,10.27,0.534,15.02,2.487
		c4.52,1.858,8.263,5.145,11.688,8.552c0.891,0.886,1.768,1.786,2.643,2.689c0.797,0.822,1.559,1.71,2.461,2.419
		c1.533,1.204,4.141,2.165,5.428,0.072C516.578,431.879,515.352,429,514.55,427.192z M492.351,363.811
		c0.655,1.483,1.461,2.901,2.33,4.266c2.524,3.962,5.618,7.734,6.565,12.457c0.148,0.738,0.216,1.486,0.208,2.229
		c-0.423,0.776-0.902,1.529-1.497,2.125c-0.999,1.001-2.3,1.292-3.658,0.93c-1.582-0.421-2.833-1.449-3.953-2.605
		c-0.108-0.111-0.215-0.23-0.323-0.348c-2.45-3.103-5.892-5.275-8.797-7.919c-0.996-0.907-1.969-1.9-2.815-2.977
		c-0.092-0.618-0.428-1.165-0.699-1.728c-0.281-0.584-0.493-1.197-0.675-1.819c-0.369-1.257-0.524-2.563-0.488-3.872
		c0.053-1.911,0.634-3.846,1.568-5.554l0.077-0.06c0.246-0.183,0.523-0.334,0.811-0.435c0.611-0.213,1.217-0.241,1.858-0.239
		c0.736,0.002,1.514,0.26,2.2,0.508c0.506,0.183,0.996,0.393,1.479,0.619C488.608,360.706,490.581,362.178,492.351,363.811z
		 M469.253,341.492l0.037-0.02c0.113-0.03,0.232-0.026,0.347-0.043c0.706,0.061,1.411,0.13,2.113,0.225
		c2.207,0.298,4.406,0.767,6.552,1.36c4.281,1.183,8.401,2.799,12.189,5.13c1.167,1.954,0.844,4.265,0.583,6.443
		c-0.008,0.063-0.009,0.125-0.016,0.188c-1.792,1.782-4.487,1.403-6.772,0.7c-2.7-0.831-5.376-1.775-7.782-3.285
		c-2.107-1.323-3.813-3.086-4.875-5.346c-0.51-1.086-0.817-2.247-1.322-3.336c-0.291-0.626-0.68-1.344-1.18-1.921l0.003-0.003
		l0.022-0.022L469.253,341.492z M443.98,386.375c0.263,0.293,0.544,0.57,0.803,0.867c2.269,2.599,4.308,5.349,6.172,8.204
		c0.098,0.694,0.108,1.381-0.054,2.119c-0.219,0.999-0.701,1.948-1.404,2.695c-1.532,1.628-3.958,2.152-6.112,1.817
		c-2.377-0.371-4.486-1.741-6.206-3.366c-0.956-0.903-1.801-1.904-2.637-2.917c-0.728-0.882-1.316-1.899-2.096-2.731
		c-0.177-0.333-0.355-0.665-0.537-0.995c-0.103-0.382-0.186-0.767-0.295-1.148c-0.112-0.391-0.294-0.751-0.445-1.128
		c-0.302-0.755-0.572-1.527-0.787-2.312c-0.218-0.794-0.39-1.612-0.43-2.437c-0.02-0.404,0.009-0.872-0.024-1.319
		c1.821-0.092,3.607-0.42,5.342-0.944C438.388,383.272,441.407,384.544,443.98,386.375z M440.299,378.307
		c-0.383-0.393-0.778-0.774-1.17-1.137c-0.353-0.327-0.737-0.6-1.064-0.957c-0.378-0.413-0.717-0.846-1.129-1.229
		c-1.512-1.405-3.128-2.691-4.732-3.987c-2.917-2.358-6.225-4.272-9.601-5.895c-3.172-1.524-6.462-2.785-9.88-3.619
		c0.285,0.038,0.572,0.068,0.857,0.109c3.904,0.566,7.782,1.337,11.606,2.307c3.766,0.955,7.483,2.12,11.1,3.54
		c1.843,0.724,3.659,1.514,5.444,2.372c1.465,0.705,2.847,1.6,4.317,2.294c-0.053,0.129-0.09,0.26-0.151,0.387
		c-1.045,2.202-2.754,4.026-4.775,5.47C440.847,378.086,440.573,378.196,440.299,378.307z M449.555,387.798
		c-0.594-1.023-1.111-2.098-1.548-3.197c-0.23-0.742-0.431-1.494-0.567-2.256c-0.194-1.087-0.284-2.197-0.301-3.3
		c-0.017-1.054-0.027-2.174,0.139-3.217c0.123-0.09,0.245-0.184,0.364-0.273c0.962-0.719,2.354-0.698,3.451-0.34
		c1.378,0.45,2.587,1.407,3.835,2.124c0.058,0.034,0.114,0.05,0.168,0.056c0.638,0.496,1.291,0.972,1.92,1.479
		c2.897,2.337,5.745,4.894,8.404,7.653c0.676,1.556,0.713,3.739,0.15,5.327c-0.151,0.424-0.359,0.812-0.597,1.179
		c-3.325,2.149-7.669,1.875-10.948-0.299C452.15,391.492,450.676,389.731,449.555,387.798z M430.791,327.133l0.176-0.005
		c2.26-0.517,4.404-0.934,6.737-0.93c2.224,0.003,4.437,0.241,6.64,0.519c3.487,0.439,7.246,0.915,10.864,0.697
		c0.138,0.25,0.33,0.48,0.485,0.713c0.247,0.371,0.482,0.745,0.665,1.153c0.353,0.786,0.528,1.66,0.507,2.52
		c-0.021,0.874-0.277,1.73-0.695,2.495c-0.003,0.005-0.007,0.01-0.01,0.016c-1.523,1.298-3.625,1.838-5.587,1.962
		c-2.96,0.187-5.962-0.048-8.923-0.137c-2.415-0.072-4.831-0.14-7.246-0.208c-2.246-0.212-4.492-0.406-6.739-0.565
		c-1.223-0.38-2.3-1.127-3.019-2.21C426.886,331.348,428.935,329.324,430.791,327.133z M430.217,319.763
		c-2.378-0.091-4.756-0.173-7.135-0.244c-2.588-0.077-5.177-0.155-7.765-0.232c-2.532-0.075-5.077-0.152-7.604,0.059
		c-2.231,0.186-4.467,0.564-6.555,1.394c-0.323,0.128-0.635,0.279-0.951,0.424c3.903-3.939,7.884-7.801,11.972-11.533
		c2-1.826,4.109-3.545,6.157-5.318c1.51-1.307,3.054-2.586,4.7-3.718l0.318-0.069c0.54-0.43,1.099-0.824,1.673-1.189
		c3.774-2.144,8.267-3.264,12.435-1.865c0.196,0.095,0.397,0.175,0.608,0.222l0.102,0.037c0.212,1.61,0.229,3.245,0.131,4.735
		c-0.03,0.451-0.077,0.901-0.131,1.35c-0.286,0.96-0.618,1.903-0.96,2.812c-1.403,3.726-3.207,7.309-5.334,10.673
		C431.349,318.137,430.791,318.955,430.217,319.763z M452.906,325.569c-3.926-0.06-7.793-0.827-11.695-1.17
		c-2.716-0.239-5.714-0.359-8.463,0.26c2.222-3.015,4.106-6.282,5.563-9.741c0.695,0.072,1.387,0.006,2.117-0.058
		c0.999-0.089,1.994-0.222,2.985-0.372c2.011-0.303,4.001-0.714,5.99-1.137c3.609-0.767,7.218-1.529,10.83-2.284
		c1.673-0.35,3.35-0.688,5.02-1.054c0.796,0.788,1.431,1.676,1.8,2.786c0.449,1.35,0.599,2.815,0.354,4.222
		C466.259,323.602,458.614,325.656,452.906,325.569z M466.214,307.907c-3.083,0.798-6.249,1.334-9.366,1.98
		c-3.265,0.677-6.53,1.36-9.802,2c-1.614,0.315-3.232,0.619-4.859,0.86c-1.005,0.149-2.086,0.187-3.123,0.344
		c1.565-4.199,2.506-8.636,2.754-13.112c5.136-0.35,10.272-0.695,15.406-1.071c4.8-0.351,9.738-0.47,14.465-1.447
		c0.371,0.847,0.712,1.683,0.81,2.639c0.125,1.216-0.016,2.445-0.48,3.581C471.012,306.144,468.657,307.275,466.214,307.907z
		 M467.246,296.102c-8.442,0.892-16.909,1.591-25.361,2.397c0.136-3.951-0.118-8.686-3.093-11.441
		c-0.392-0.363-0.819-0.659-1.266-0.915c1.995-0.225,3.988-0.464,5.978-0.734c4.544-0.617,9.072-1.356,13.576-2.218
		c6.99-1.338,13.908-3.03,20.756-4.969c0.685,0.119,1.355,0.344,1.997,0.715c1.627,0.939,2.676,2.484,3.032,4.32
		c0.707,3.655-1.46,7.249-4.368,9.298C475.208,294.872,471.177,295.687,467.246,296.102z M437.6,295.117
		c-5.176-0.845-10.816,0.824-14.452,4.648c-4.277,2.821-7.894,6.536-11.656,9.977c-4.172,3.817-8.305,7.665-12.356,11.61
		c-0.288,0.28-0.572,0.565-0.859,0.846c-0.75,0.481-1.721,1.06-2.163,1.854c-1.647,1.223-3.217,2.562-4.789,3.868
		c-2.151,1.786-4.291,3.585-6.455,5.356c-2.166,1.772-4.307,3.566-6.423,5.399c-1.092,0.947-2.181,1.897-3.254,2.865
		c-0.354,0.319-0.707,0.639-1.061,0.959c-0.408-1.993-0.44-4.199-0.058-6.197c0.19-0.997,0.471-1.982,0.865-2.918
		c0.069-0.165,0.151-0.333,0.232-0.502c4.587-6.65,9.621-13.017,15.044-18.994c0.837-0.849,1.655-1.719,2.501-2.545
		c1.602-1.563,3.245-3.084,4.924-4.563c1.711-1.508,3.463-2.974,5.236-4.407c1.273-1.029,2.527-2.083,3.792-3.122
		c0.119-0.045,0.234-0.097,0.367-0.2c0.183-0.143,0.359-0.296,0.538-0.443c0.375-0.308,0.726-0.633,1.084-0.96
		c0.692-0.632,1.413-1.233,2.157-1.802c1.531-1.173,3.159-2.225,4.851-3.149c1.711-0.935,3.488-1.728,5.302-2.44
		c0.531-0.208,1.067-0.397,1.607-0.577c1.291,0.024,2.564-0.406,3.837-0.604c1.212-0.189,2.45-0.27,3.675-0.18
		c2.278,0.517,4.389,1.519,6.048,3.164C436.796,292.969,437.259,294.015,437.6,295.117z M378.572,346.876
		c0.374-0.458,0.726-0.941,1.086-1.377c0.662-0.803,1.322-1.606,1.973-2.416c1.241-1.543,2.51-3.064,3.768-4.594
		c2.54-3.091,5.209-6.109,7.435-9.432c0.067-0.1,0.077-0.2,0.053-0.289c1.238-1.306,2.47-2.615,3.722-3.909l0.16-0.05
		c0.542-0.262,0.923-0.726,1.391-1.094c0.459-0.36,0.952-0.68,1.455-0.974c1.056-0.618,2.178-1.09,3.34-1.47
		c4.56-1.493,9.387-1.225,14.115-1.106c4.211,0.105,8.421,0.216,12.632,0.29c-3.492,4.748-7.739,8.961-12.49,12.443
		c-1.252,0.722-2.527,1.409-3.843,2.018c-0.117,0.054-0.206,0.142-0.285,0.238c-1.457,0.084-2.913,0.203-4.37,0.377
		c-9.731,1.157-19.625,4.611-26.871,11.322c-0.008,0.001-0.015-0.001-0.023,0C380.776,347.07,379.663,347.044,378.572,346.876z
		 M385.789,346.568c10.191-7.799,23.4-9.536,35.87-9.159c0.969,0.029,1.938,0.086,2.907,0.136c0.167,0.037,0.328,0.079,0.524,0.09
		c0.439,0.024,0.879,0.034,1.319,0.05c0.388,0.013,0.775,0.025,1.163,0.038c8.967,0.622,17.916,1.852,26.89,2.104
		c0.277,0.053,0.55,0.105,0.81,0.168c1.139,0.274,2.265,0.607,3.37,0.995c1.996,0.701,3.981,1.594,5.857,2.599
		c0.702,0.711,1.327,1.497,1.829,2.36c0.202,0.347,0.372,0.711,0.536,1.076c-3.107-0.501-6.223-0.95-9.345-1.351
		c-0.172-0.026-0.342-0.06-0.515-0.083c-0.406-0.054-0.848-0.149-1.271-0.135c-2.719-0.335-5.441-0.649-8.165-0.935
		c-0.453-0.048-0.906-0.084-1.359-0.131c-0.179-0.058-0.36-0.105-0.548-0.116c-0.657-0.13-1.319-0.197-1.979-0.171
		c-0.037,0.001-0.055,0.027-0.088,0.035c-4.744-0.463-9.49-0.88-14.249-1.18c-5.845-0.369-11.816-0.859-17.647-0.07
		c-5.138,0.695-9.759,2.853-14.42,5.002c-2.293,1.057-4.603,2.1-7.01,2.871c-1.287,0.412-2.59,0.71-3.91,0.918
		c-1.577-0.2-3.115-0.699-4.464-1.539C383.105,348.856,384.388,347.641,385.789,346.568z M467.696,349.705
		c0.48,2.53,0.215,5.219-0.736,7.592c-0.035,0.087-0.081,0.17-0.118,0.257c-0.214-0.193-0.428-0.386-0.642-0.579
		c-0.436-0.608-0.913-1.144-1.272-1.511c-1.603-1.644-3.643-2.912-5.589-4.14c-0.558-0.367-1.121-0.726-1.69-1.074
		c-2.009-1.23-3.912-2.57-6.048-3.588c-0.275-0.131-0.558-0.241-0.835-0.367c-0.643-0.34-1.312-0.674-1.999-0.979
		c2.132,0.223,4.262,0.467,6.392,0.713c0.004,0.002,0.004,0.007,0.008,0.009c0.495,0.239,1.056,0.198,1.596,0.246
		c0.617,0.055,1.233,0.129,1.844,0.226c1.2,0.191,2.388,0.517,3.552,0.862c0.518,0.153,1.018,0.335,1.514,0.524
		c0.124,0.093,0.277,0.143,0.444,0.169C465.336,348.552,466.513,349.126,467.696,349.705z M398.425,348.171
		c2.312-1.093,4.625-2.198,7.034-3.062c2.695-0.967,5.482-1.55,8.334-1.791c5.876-0.496,11.875,0.099,17.743,0.494
		c3.952,0.266,7.894,0.607,11.832,0.977c0.05,0.065,0.107,0.129,0.2,0.161c1.158,0.406,2.347,0.724,3.49,1.177
		c1.093,0.433,2.162,0.942,3.21,1.473c2.188,1.107,4.374,2.202,6.53,3.372c1.292,0.701,2.652,1.436,3.899,2.296
		c1.991,1.969,3.547,4.243,4.609,6.825c-0.332,0.402-0.686,0.785-1.087,1.116c-1.303,1.075-2.906,1.476-4.572,1.44
		c-3.754-0.082-7.548-1.672-10.937-3.158c-3.532-1.549-6.985-3.257-10.612-4.584c-3.477-1.272-7.064-2.206-10.677-2.997
		c-7.259-1.589-14.763-2.207-22.184-1.819c-3.729,0.195-7.45,0.646-11.117,1.349c-0.454,0.087-0.911,0.186-1.367,0.279
		c-0.849-0.089-1.723,0.005-2.573,0.063c-0.16,0.011-0.323,0.007-0.484,0.014C392.729,350.904,395.662,349.477,398.425,348.171z
		 M465.883,382.867c-0.731-0.266-1.429-0.608-2.107-0.986c-0.697-0.389-1.37-0.832-1.986-1.341c-0.646-0.533-1.252-1.13-1.994-1.526
		c-0.008-0.004-0.017-0.005-0.024-0.008c-0.856-0.721-1.707-1.45-2.584-2.146c-1.566-1.242-3.161-2.447-4.776-3.625
		c-1.319-0.963-2.665-1.925-4.099-2.721c0.021-0.138,0.052-0.273,0.068-0.413c0.21-1.846-0.102-3.583-0.755-5.201
		c-0.034-0.654,0.047-1.303,0.436-1.846c0.362-0.505,0.913-0.655,1.493-0.66c1.742,0.715,3.512,1.356,5.334,1.842
		c1.196,0.319,2.421,0.568,3.638,0.676c5.351,2.29,10.589,4.9,15.626,7.839c0.186,0.445,0.416,0.886,0.549,1.333
		c0.217,0.735,0.343,1.47,0.335,2.238c-0.015,1.451-0.469,2.916-1.342,4.083c-0.855,1.142-2.168,1.937-3.497,2.399
		c-1.147,0.399-2.228,0.465-3.369,0.43C466.513,383.108,466.2,382.982,465.883,382.867z M471.39,367.554
		c-1.622-0.156-3.252-0.82-4.659-1.611c-0.72-0.405-1.42-0.851-2.089-1.337c-0.231-0.167-0.449-0.338-0.669-0.502
		c0.666-0.309,1.309-0.707,1.917-1.222c2.72-2.302,4.073-6.029,4.315-9.509c0.135,0.026,0.274,0.039,0.413,0.055l0.158,0.106
		c0.742,0.544,1.422,1.161,2.054,1.828c1.256,1.324,2.238,2.877,2.787,4.625c0.295,0.94,0.464,1.915,0.511,2.895
		C475.559,365.371,474.337,367.837,471.39,367.554z M476.95,332.987c-1.595,0.772-3.292,1.315-5.015,1.607
		c-0.225,0.023-0.443,0.045-0.644,0.063c-1.103,0.099-2.21,0.145-3.318,0.165c-1.153-0.066-2.299-0.241-3.413-0.526
		c-1.702-0.435-3.765-1.189-3.655-3.293c0.104-1.984,1.786-3.256,3.497-3.92c2.118-0.821,4.513-1.302,6.782-1.326
		c1.698-0.018,3.377,0.282,4.888,1.016c1.142,1.048,1.98,2.402,1.96,3.916C478.018,331.694,477.596,332.435,476.95,332.987z
		 M490.895,313.578c-2.099,3.543-5.648,6.842-11.31,5.123c-8.19-2.486-2.513-8.879,0.753-11.856c1.108-1.01,2.612-1.462,4.096-1.25
		l2.834,0.405C490.832,306.509,492.731,310.48,490.895,313.578z M498.915,292.28l-1.423,5.088c-0.738,2.638-3.659,3.992-6.149,2.851
		l-4.84-2.219c-2.627-1.204-3.472-4.589-1.642-6.824c2.433-2.972,5.673-4.493,9.718-4.562
		C497.545,286.564,499.714,289.423,498.915,292.28z M497.89,270.141c1.266-0.491,2.628-0.525,3.9-0.168
		c0.472,0.569,0.863,1.209,1.125,1.891c0.953,2.484,0.564,5.485-0.856,7.716c-0.573,0.899-1.381,1.733-2.381,2.148
		c-1.224,0.508-2.565,0.304-3.775-0.134c-1.898-0.688-3.505-1.947-5.245-2.959c-0.322-0.496-0.355-1.017,0.037-1.621
		c0.532-0.822,1.359-1.436,2.003-2.166c0.286-0.324,0.56-0.66,0.823-1.005c0.515-0.466,0.969-1.002,1.386-1.578
		C495.79,271.395,496.74,270.588,497.89,270.141z M457.868,265.656c0.098-0.239,0.162-0.476,0.213-0.712
		c1.502-0.357,2.986-0.795,4.491-1.142c1.948-0.449,3.903-0.839,5.88-1.138c4.029-0.61,8.106-0.86,12.179-0.734
		c3.525,0.109,7.116,0.428,10.563,1.199c1.121,0.251,2.542,0.616,3.169,1.682c0.728,1.237-0.155,2.734-0.98,3.676
		c-0.921,1.052-2.046,1.931-3.26,2.692c-2.504,1.172-5.219,1.875-7.559,3.326c-2.48,0.822-5.014,1.509-7.531,2.181
		c-7.381,1.97-14.865,3.604-22.388,4.927c-3.801,0.669-7.617,1.253-11.445,1.742c-1.895,0.242-3.793,0.463-5.694,0.662
		c-0.865,0.091-1.73,0.191-2.594,0.293c2.336-1.309,4.639-2.677,6.886-4.092c4.525-2.849,8.885-5.957,13.066-9.29
		C454.731,269.441,456.93,267.943,457.868,265.656z M448.922,263.468c1.054,0.165,2.097,0.389,3.085,0.715
		c0.11,0.036,0.223,0.079,0.334,0.126l0.25,0.178c0.724,1.431,0.555,3.224-0.757,4.492c-0.099,0.095-0.166,0.196-0.209,0.297
		c-1.099,0.855-2.223,1.679-3.335,2.497c-3.98,2.929-8.113,5.65-12.377,8.149c-4.093,2.399-8.328,4.476-12.574,6.576
		c-4.382,1.33-8.516,3.414-12.341,5.917c-4.257,2.785-8.184,6.061-11.897,9.53c-3.953,3.693-7.717,7.589-11.276,11.663
		c-2.848,3.26-5.558,6.642-8.12,10.13c-1.073,1.078-2.21,2.088-3.316,3.132c-1.152,1.088-2.33,2.193-3.583,3.166
		c-0.656,0.509-1.292,1.057-1.961,1.55c-0.222,0.164-0.438,0.3-0.642,0.302c-0.003-0.081-0.02-0.162-0.047-0.239
		c0.016-0.157,0.022-0.315,0.042-0.471c3.829-10.452,9.404-20.28,16.073-29.173c6.794-9.059,14.922-17.177,23.921-24.046
		c5.92-4.519,12.245-8.502,18.829-11.998c0.808-0.315,1.619-0.619,2.444-0.893c0.541-0.179,1.09-0.318,1.635-0.472
		c1.524-0.364,3.06-0.681,4.602-0.962c1.871-0.075,3.742-0.107,5.614-0.115C445.163,263.513,447.045,263.446,448.922,263.468z
		 M418.782,260.334c-0.218-1.244-0.648-2.441-1.248-3.547c-0.36-1.04-0.932-2.003-1.78-2.818c-0.475-0.456-1.048-0.847-1.663-1.152
		c4.548-2.73,9.794-4.085,15.029-4.715c2.363-0.285,4.82-0.525,7.221-0.45c1.382,0.674,2.644,1.593,3.659,2.723
		c0.08,0.158,0.181,0.296,0.249,0.464c0.393,0.976,0.539,2.004,0.465,3.019c-0.469,1.621-1.451,3.116-2.678,4.252
		c-1.163,1.077-2.504,1.906-3.907,2.629c-0.694,0.358-1.408,0.674-2.108,1.019c-0.363,0.179-0.753,0.35-1.099,0.572
		c-0.113,0.057-0.226,0.111-0.339,0.169c-0.033,0.006-0.067,0.01-0.1,0.017c-0.161,0.035-0.276,0.117-0.369,0.216
		c-0.055,0.028-0.11,0.054-0.165,0.082c-0.329,0.108-0.659,0.212-0.986,0.329c-1.411,0.509-2.835,0.979-4.259,1.451
		c-1.248,0.413-2.502,0.806-3.765,1.171l-0.004,0.001c-0.412,0.013-0.816-0.002-1.176-0.106c-0.908-0.263-0.764-1.358-0.747-2.116
		C419.038,262.465,418.968,261.397,418.782,260.334z M415.198,260.695c-0.05,4.438-2.082,8.422-4.824,11.804
		c-1.477,1.822-3.177,3.484-4.927,5.042c-0.87,0.775-1.788,1.497-2.703,2.217c-0.256,0.202-0.517,0.403-0.776,0.606
		c-0.963,0.73-1.937,1.447-2.895,2.18c-1.364,1.043-2.751,2.065-4.153,3.057c-0.337,0.238-0.673,0.481-1.018,0.709
		c-0.157,0.103-0.339,0.257-0.525,0.3l-0.089,0.034c-0.15-0.093-0.122-0.654-0.121-0.798c0.002-0.403,0.032-0.809,0.07-1.211
		c0.038-0.391,0.093-0.78,0.164-1.165c0.598-1.595,1.174-3.198,1.698-4.818c1.308-4.044,2.405-8.156,3.283-12.314
		c0.263-1.244,0.54-2.505,0.749-3.77l0.234-0.096c2.674-2.335,5.224-4.781,8.134-6.833c0.079-0.056,0.162-0.105,0.241-0.16
		c0.476-0.078,1.003-0.2,1.4-0.252c0.437-0.057,0.877-0.11,1.417-0.148c0.992-0.07,2.031-0.194,3.021-0.079l0.226-0.062
		c0.048,0.037,0.089,0.084,0.136,0.122C414.744,256.822,415.219,258.805,415.198,260.695z M408.282,249.552
		c-1.998,2.05-4.105,4.013-6.214,5.964c-0.245,0.089-0.497,0.159-0.746,0.231c-0.651,0.189-1.365,0.217-1.98,0.069
		c-0.897-0.217-1.565-0.777-2.034-1.502c-0.059-0.299-0.094-0.603-0.095-0.906c-0.002-1.773,1.109-3.298,2.28-4.532
		c0.651-0.687,1.364-1.303,2.054-1.95c0.781-0.732,1.532-1.481,2.434-2.068c1.613-1.048,3.821-1.724,5.691-0.992
		c0.326,0.437,0.561,0.932,0.64,1.458C410.562,246.986,409.36,248.445,408.282,249.552z M397.614,259.089
		c0.122,1.748-0.31,3.508-0.643,5.211c-0.392,1.998-0.835,3.987-1.327,5.963c-0.367,1.474-0.773,2.938-1.196,4.396
		c-2.99,1.618-5.906,3.488-8.505,5.655c-0.881,0.734-1.685,1.526-2.439,2.357l0.118-0.271c0.419-1.017,0.672-2.105,1.005-3.155
		c0.348-1.1,0.669-2.208,0.95-3.327c0.584-2.329,1.083-4.687,1.548-7.041c0.222-1.123,0.451-2.244,0.711-3.358
		c0.591-1.774,1.297-3.485,2.175-5.154c0.505-0.959,1.105-1.874,1.708-2.774c0.223-0.332,0.454-0.669,0.69-1.001
		c0.771-0.38,1.594-0.615,2.476-0.547c0.776,0.06,1.381,0.374,1.829,0.842c0.105,0.15,0.213,0.294,0.334,0.424
		C397.374,257.81,397.568,258.42,397.614,259.089z M388.13,262.015c-1.459,4.542-1.592,9.369-2.975,13.924
		c-0.336,1.105-0.706,2.204-1.145,3.273c-0.461,1.122-1.058,2.168-1.586,3.259c-0.484,1-0.984,1.991-1.462,2.993
		c-0.353,0.741-0.897,1.506-1.198,2.304c-2.099,3.483-3.731,7.295-5.442,10.977c-0.872,1.876-1.818,3.72-2.749,5.57
		c-0.104-0.01-0.209,0.015-0.27,0.137c-0.598,1.209-1.198,2.429-1.815,3.642l-0.169,0.142c-0.463,0.756-0.989,1.462-1.447,2.22
		c-0.411,0.681-0.785,1.396-1.249,2.043c-0.214,0.299-0.415,0.608-0.609,0.925c-0.129-1.202-0.243-2.406-0.337-3.611
		c-0.189-2.443-0.282-4.896-0.227-7.346c0.027-1.196,0.087-2.394,0.159-3.589c0.019-0.31,0.044-0.621,0.069-0.932
		c0.22-0.971,0.461-1.94,0.731-2.905c1.081-3.86,2.471-7.635,4.166-11.268c3.029-6.491,6.949-12.566,11.693-17.937
		c2.21-2.502,4.587-4.867,7.117-7.048C388.882,259.843,388.473,260.949,388.13,262.015z M368.657,315.075
		c0.743-2.041,1.558-4.051,2.354-6.072c1.441-3.661,2.85-7.292,4.554-10.843c1.58-3.293,3.046-6.693,4.835-9.878l0.116-0.185
		c0.578-0.662,1.004-1.538,1.431-2.253c1.488-2.115,3.241-3.998,5.284-5.652c2.191-1.774,4.597-3.205,6.975-4.691
		c-0.645,2.167-1.342,4.319-2.092,6.453c-1.328,3.774-2.842,7.482-4.54,11.106c-1.624,3.466-3.545,6.798-5.157,10.266
		c-0.951,1.348-1.88,2.71-2.772,4.097c-0.259,0.403-0.504,0.819-0.759,1.227c-1.514,1.636-3.037,3.266-4.602,4.853
		c-0.975,0.988-1.931,1.994-2.912,2.976c-0.886,0.888-1.752,1.947-2.787,2.659c-0.588,0.405-1.035,0.393-1.395,0.119
		C367.708,317.875,368.154,316.456,368.657,315.075z M436.371,232.285c0.175,0.049,0.329,0.038,0.471,0.003
		c0.162,0.033,0.326,0.056,0.488,0.093c0.135,0.03,0.269,0.06,0.404,0.089c0.754,0.885,1.403,1.865,1.897,2.951
		c0.707,1.554,1.085,3.275,1.106,4.981c0.017,1.385-0.231,2.726-0.547,4.06c-0.797-0.072-1.594-0.116-2.365-0.149
		c-1.807-0.076-3.618-0.045-5.421,0.088c-6.536,0.482-12.898,2.261-18.754,5.2l-0.132,0.071c0.326-0.425,0.603-0.892,0.795-1.406
		c0.793-2.118,0.208-4.626-1.564-6.064c-0.074-0.06-0.155-0.105-0.231-0.161c0.338-0.584,0.363-1.295,0.665-1.924
		c0.335-0.696,0.786-1.327,1.306-1.895c1.107-1.21,2.433-2.242,3.771-3.183c0.401-0.282,0.824-0.527,1.244-0.778
		c0.884-0.465,1.775-0.918,2.672-1.359c1.615-0.455,3.278-0.764,4.936-1.08c0.073-0.002,0.147-0.003,0.22-0.004l0.184,0.019
		c0.138-0.011,0.275-0.02,0.413-0.03c1.943-0.045,3.872-0.127,5.827,0.026c0.454,0.036,0.904,0.096,1.355,0.158
		C435.532,232.073,435.952,232.166,436.371,232.285z M432.964,214.099l0.155,0.136c0.331,0.58,0.608,1.185,0.841,1.807
		c0.826,3.185,0.069,6.578-0.802,9.673c-0.036,0.128-0.034,0.245-0.015,0.355c-0.161,0.059-0.325,0.119-0.485,0.176
		c-2.185,0.778-4.34,1.635-6.467,2.559c-4.247,1.846-8.339,4.028-12.268,6.476c-0.09-0.034-0.189-0.049-0.301-0.016
		c-0.56,0.169-1.327-0.054-1.805-0.29c-0.594-0.293-1.035-0.737-1.368-1.296c-0.284-0.476-0.462-0.976-0.603-1.515
		c0.035-0.39,0.079-0.781,0.096-1.171c0.043-0.992-0.021-2.059-0.555-2.926c-1.014-1.648-2.975-1.822-4.718-1.539
		c-0.141-0.244-0.185-0.528-0.167-0.824c0.062-1.027,0.635-2.053,1.071-2.965c0.216-0.451,0.449-0.896,0.69-1.338
		c0.21-0.219,0.416-0.441,0.637-0.653c1.87-1.794,3.992-3.263,6.218-4.579c2.308-1.364,4.705-2.674,7.189-3.689
		c2.283-0.933,4.678-1.622,7.167-1.331C429.503,211.387,431.787,212.361,432.964,214.099z M399.343,214.384
		c0.138-1.064,0.529-2.036,1.108-2.933c0.14-0.216,0.288-0.432,0.45-0.635c1.557-1.313,3.159-2.574,4.818-3.763
		c2.751-1.971,5.629-3.766,8.616-5.357c2.953-1.573,6.166-2.984,9.544-3.237c0.035-0.003,0.071-0.001,0.106-0.003
		c0.787,0.184,1.539,0.588,2.221,0.996c0.799,0.479,1.471,1.146,1.951,1.945c0.899,1.497,0.987,3.354,0.321,4.938
		c-7.397,1.203-14.201,4.954-19.939,9.753c-1.1,0.92-2.156,1.888-3.194,2.877c-0.056,0.03-0.109,0.067-0.148,0.122
		c-0.05,0.069-0.119,0.13-0.176,0.195c-0.139,0.134-0.276,0.271-0.415,0.406c-0.445,0.37-0.974,0.68-1.455,0.905
		c-0.426,0.2-0.881,0.31-1.344,0.36c0.111-1.134-0.234-2.248-0.921-3.151c-0.343-0.79-0.86-1.492-1.57-1.913
		C399.271,215.393,399.277,214.89,399.343,214.384z M401.875,230.296c1.203-0.165,2.563-0.172,3.651,0.442
		c0.441,0.249,0.922,0.63,1.286,1.082c0.103,0.617,0.123,1.252,0.091,1.832c-0.047,0.87-0.191,1.705-0.371,2.531
		c-0.639,1.096-1.305,2.177-2.002,3.224c-2.488,3.737-5.462,7.119-8.841,10.073c-1.718,1.502-3.508,2.925-5.164,4.496
		c-0.79,0.75-1.573,1.519-2.273,2.354c-0.54,0.645-1.351,1.451-1.584,2.319c-2.362,2.107-4.587,4.363-6.646,6.768
		c-4.922,5.75-8.994,12.224-12.001,19.172c-1.228,2.837-2.285,5.743-3.166,8.704c0.625-3.013,1.338-6.021,2.255-8.943
		c1.279-4.076,2.795-8.078,4.472-12.007c5.975-14.002,14.271-26.872,23.697-38.785c0.349-0.442,0.712-0.889,1.068-1.334
		c0.128-0.079,0.258-0.159,0.393-0.235c0.527-0.292,1.07-0.556,1.63-0.777C399.496,230.773,400.677,230.461,401.875,230.296z
		 M365.649,279.956c2.151-14.726,6.441-29.192,13.621-42.271c2.022-3.683,4.292-7.242,6.755-10.662
		c0.522-0.454,0.999-1.01,1.479-1.437c0.019-0.017,0.04-0.031,0.059-0.048c0.051-0.04,0.103-0.079,0.15-0.122
		c0.711-0.624,1.438-1.23,2.198-1.793c0.823-0.609,1.673-1.184,2.544-1.722c0.141-0.087,0.285-0.176,0.427-0.264
		c0.458-0.112,0.921-0.169,1.375-0.13c1.215,0.104,2.097,1.167,2.477,2.256c0.257,0.738,0.313,1.509,0.281,2.286
		c-0.031,0.735-0.062,1.462-0.154,2.186c-1.525,1.857-3.015,3.741-4.48,5.629c-4.832,6.228-9.376,12.685-13.423,19.453
		c-3.976,6.649-7.436,13.594-10.129,20.862c-1.335,3.604-2.327,7.324-3.252,11.052c-0.423,1.705-0.787,3.414-1.101,5.131
		C364.769,286.881,365.145,283.409,365.649,279.956z M384.881,355.613c1.785-0.526,3.561-1.078,5.368-1.53
		c2.112-0.528,4.245-0.968,6.394-1.319c4.306-0.704,8.673-1.036,13.035-1.024c7.847,0.024,15.689,1.203,23.148,3.655
		c2.798,0.92,5.524,2.014,8.216,3.196c1.592,1.618,3.154,3.279,4.233,5.277c1.081,2.003,1.641,4.258,1.292,6.45l-0.005,0.03
		c-0.058,0.356-0.141,0.711-0.249,1.063c-1.614-1.058-3.502-1.808-5.233-2.601c-1.93-0.883-3.895-1.689-5.887-2.423
		c-7.516-2.774-15.293-4.371-23.2-5.538c-3.411-0.503-6.838-0.865-10.274-1.126c-0.581-0.059-1.161-0.123-1.743-0.177
		c-2.314-0.216-4.629-0.42-6.945-0.615c-1.157-0.097-2.317-0.189-3.471-0.32c-0.933-0.106-1.854-0.297-2.777-0.476
		C386.161,357.286,385.528,356.444,384.881,355.613z M399.553,367.34c-1.837-0.651-3.392-1.322-5.282-1.797
		c-0.823-0.207-0.949-0.47-1.79-0.653c-1.069-1.731-3.22-3.256-4.389-4.924c4.285,0.079,8.576,0.175,12.851,0.458
		c1.578,0.104,3.158,0.215,4.737,0.337c6.176,0.939,12.224,2.876,17.792,5.68c3.239,1.631,6.412,3.567,9.309,5.753
		c1.512,1.141,2.861,2.435,4.311,3.644c0.974,0.811,1.784,1.757,2.592,2.714c-2.7,1.001-5.525,1.452-8.484,1.337
		c-3.684-0.144-7.282-1.164-10.692-2.519c-3.657-1.453-7.006-3.507-10.486-5.314C406.616,370.284,403.177,368.624,399.553,367.34z
		 M418.136,394.077c-0.422-0.599-0.84-1.201-1.255-1.804c-2.739-3.985-5.488-7.942-8.699-11.568
		c-1.837-2.075-3.798-4.038-5.845-5.905c0.38-0.577,1.078-0.812,1.763-0.744c0.197,0.118,0.395,0.236,0.591,0.354
		c5.11,3.066,10.366,6.12,16.061,7.962c0.723,0.234,1.456,0.444,2.196,0.626c0.465,0.632,0.934,1.259,1.454,1.853
		c0.77,0.88,1.512,1.786,2.198,2.733c2.364,3.26,4.348,6.672,6.059,10.313c-0.173,1.187-1.248,2.037-2.476,2.224
		c-1.632,0.249-3.423-0.202-4.944-0.774c-1.585-0.597-3.084-1.497-4.379-2.587C419.893,395.946,419.081,394.922,418.136,394.077z
		 M435.124,406.739l-0.071,0.116l-0.043,0.063c-0.106,0.144-0.121,0.165-0.195,0.245l-0.234,0.225l-0.108,0.098l-0.027,0.025
		l-0.018,0.01l-0.152,0.092c-0.342,0.033-0.666,0.125-0.958,0.281c-0.241,0.009-0.486-0.001-0.725-0.028l-0.11-0.017l-0.178-0.035
		c-2.151-1.228-4.203-2.628-6.084-4.275c-1.242-1.087-2.384-2.264-3.466-3.495c1.123,0.603,2.306,1.095,3.535,1.431
		c2.014,0.552,4.568,0.939,6.365-0.403c0.365-0.273,0.669-0.65,0.898-1.07c0.471,1.23,0.873,2.489,1.21,3.757
		c0.188,0.708,0.337,1.425,0.491,2.141c-0.076,0.098-0.123,0.224-0.092,0.384C435.193,406.441,435.203,406.602,435.124,406.739z
		 M458.618,411.051c-0.08,0.227-0.199,0.429-0.325,0.634c-0.269,0.436-0.547,0.775-0.935,1.16c-0.716,0.712-1.598,1.206-2.54,1.479
		c-0.093,0.027-0.175,0.072-0.25,0.124c-0.72-0.078-1.44-0.142-2.157-0.239c-2.678-0.362-5.368-0.876-8.015-1.566
		c-0.148-0.111-0.299-0.218-0.474-0.307c-0.291-0.149-0.587-0.286-0.875-0.443c-0.526-0.286-1.039-0.603-1.528-0.947
		c-0.996-0.699-1.943-1.55-2.694-2.511c-0.752-0.963-1.361-2.044-1.831-3.17c-0.063-0.15-0.113-0.312-0.167-0.469
		c-0.188-0.775-0.389-1.547-0.617-2.312c-0.284-0.953-0.591-1.897-0.916-2.834c0.126,0.133,0.238,0.279,0.367,0.408
		c3.136,3.126,7.819,5.232,12.202,3.55c2.008-0.771,3.632-2.226,4.372-4.268c0.152-0.42,0.261-0.872,0.325-1.335
		c2.414,4.034,4.467,8.276,6.179,12.681C458.703,410.817,458.655,410.946,458.618,411.051z M477.166,407.782
		c-0.278,0.891-0.618,1.771-1.059,2.594c-0.448,0.837-0.982,1.648-1.602,2.368c-0.181,0.209-0.403,0.419-0.625,0.636
		c-0.613,0.25-1.256,0.428-1.901,0.512c-2.003,0.263-4.009-0.181-5.741-1.208c-0.84-0.498-1.643-1.107-2.377-1.751
		c-0.344-0.301-0.68-0.615-1.007-0.935c-0.194-0.189-0.371-0.407-0.577-0.577c-1.486-1.693-2.766-3.518-3.775-5.55
		c-0.545-1.098-1.006-2.235-1.351-3.411c-0.057-0.194-0.111-0.389-0.169-0.583c0.003-0.084-0.008-0.169-0.002-0.252
		c0.049-0.731,0.245-1.469,0.497-2.166c2.167,0.5,4.379,0.439,6.443-0.775c1.429-0.841,2.575-2.156,3.225-3.681
		c0.032-0.007,0.066,0.002,0.097-0.01c0.194-0.06,0.392-0.079,0.591-0.101c1.185,0.751,2.33,1.507,3.384,2.464
		c1.149,1.043,2.216,2.227,3.16,3.458c0.984,1.282,1.687,2.757,2.223,4.278c0.257,0.73,0.477,1.477,0.664,2.228
		c0.098,0.391,0.17,0.788,0.265,1.178C477.42,406.93,477.297,407.359,477.166,407.782z M491.242,403.878
		c-0.225,2.144-0.213,4.291,0.025,6.432c0.117,1.053,0.354,2.197,0.092,3.245c-0.004,0.016-0.011,0.03-0.016,0.046
		c-3.141,0.94-6.699,0.195-9.098-2.154c-0.539-0.642-1.042-1.307-1.481-2.025c-0.069-0.113-0.129-0.232-0.196-0.346
		c-0.417-1.733-0.93-3.442-1.57-5.108c-1.486-3.868-3.522-7.485-5.907-10.863c-0.006-0.04,0.005-0.079-0.019-0.119
		c-0.84-1.384-0.764-3.387-0.244-4.871c0.565-1.613,1.678-3.068,2.621-4.477c1.596-2.384,3.242-5.578,2.56-8.52
		c1.036,0.653,2.078,1.297,3.092,1.982c3.155,2.132,6.22,4.481,8.768,7.327c2.136,2.385,3.739,5.078,5.144,7.914
		C492.81,395.832,491.672,399.779,491.242,403.878z"/>
</g>
</svg>
